HIERARCHY
ROOT Hips
{
    OFFSET 0.000000 0.000000 0.000000
    CHANNELS 6 Xposition Yposition Zposition Zrotation Xrotation Yrotation
    JOINT Spine
    {
        OFFSET -0.000000 8.349382 0.000000
        CHANNELS 3 Zrotation Xrotation Yrotation
        JOINT Spine1
        {
            OFFSET -0.000000 23.269058 0.000000
            CHANNELS 3 Zrotation Xrotation Yrotation
            JOINT Neck
            {
                OFFSET -0.000000 23.173496 2.106681
                CHANNELS 3 Zrotation Xrotation Yrotation
                JOINT Head
                {
                    OFFSET -0.000000 14.255042 -2.036435
                    CHANNELS 3 Zrotation Xrotation Yrotation
                    End Site
                    {
                        OFFSET -0.000000 25.455433 0.000000
                    }
                }
            }
            JOINT LeftShoulder
            {
                OFFSET 3.917082 21.531742 0.000256
                CHANNELS 3 Zrotation Xrotation Yrotation
                JOINT LeftArm
                {
                    OFFSET 10.728225 0.000000 0.000000
                    CHANNELS 3 Zrotation Xrotation Yrotation
                    JOINT LeftForeArm
                    {
                        OFFSET 30.046112 0.000000 0.000000
                        CHANNELS 3 Zrotation Xrotation Yrotation
                        JOINT LeftHand
                        {
                            OFFSET 29.023712 0.000000 0.000000
                            CHANNELS 3 Zrotation Xrotation Yrotation
                            End Site
                            {
                                OFFSET 15.273261 0.000000 0.000000
                            }
                        }
                    }
                }
            }
            JOINT RightShoulder
            {
                OFFSET -3.920664 21.531742 0.000256
                CHANNELS 3 Zrotation Xrotation Yrotation
                JOINT RightArm
                {
                    OFFSET -10.728225 0.000000 0.000000
                    CHANNELS 3 Zrotation Xrotation Yrotation
                    JOINT RightForeArm
                    {
                        OFFSET -30.046112 0.000000 0.000000
                        CHANNELS 3 Zrotation Xrotation Yrotation
                        JOINT RightHand
                        {
                            OFFSET -29.023712 0.000000 0.000000
                            CHANNELS 3 Zrotation Xrotation Yrotation
                            End Site
                            {
                                OFFSET -15.273261 0.000000 0.000000
                            }
                        }
                    }
                }
            }
        }
    }
    JOINT LeftUpLeg
    {
        OFFSET 10.182174 0.000000 0.000000
        CHANNELS 3 Zrotation Xrotation Yrotation
        JOINT LeftLeg
        {
            OFFSET -0.000000 -49.689274 0.000000
            CHANNELS 3 Zrotation Xrotation Yrotation
            JOINT LeftFoot
            {
                OFFSET -0.000000 -39.155319 0.000000
                CHANNELS 3 Zrotation Xrotation Yrotation
                JOINT LeftToeBase
                {
                    OFFSET -0.000000 -6.618412 15.273261
                    CHANNELS 3 Zrotation Xrotation Yrotation
                    End Site
                    {
                        OFFSET -0.000000 0.000000 4.072869
                    }
                }
            }
        }
    }
    JOINT RightUpLeg
    {
        OFFSET -10.182174 0.000000 0.000000
        CHANNELS 3 Zrotation Xrotation Yrotation
        JOINT RightLeg
        {
            OFFSET -0.000000 -49.689274 0.000000
            CHANNELS 3 Zrotation Xrotation Yrotation
            JOINT RightFoot
            {
                OFFSET -0.000000 -39.155319 0.000000
                CHANNELS 3 Zrotation Xrotation Yrotation
                JOINT RightToeBase
                {
                    OFFSET -0.000000 -6.618412 15.273261
                    CHANNELS 3 Zrotation Xrotation Yrotation
                    End Site
                    {
                        OFFSET -0.000000 0.000000 4.072869
                    }
                }
            }
        }
    }
}
MOTION
Frames:    4
Frame Time:    0.008333
-165.041733    98.209343    27.925795    -4.630507    -0.255107    94.614151    -0.659301    -2.685035    -0.005560    1.864974    6.427314    -0.093824    -0.621023    9.284034    13.170676    -2.627449    -3.563266    13.296521    7.391630    1.630254    -12.117891    -50.169254    18.931591    -2.787660    -2.157174    -15.014898    -14.724891    -14.528746    -15.398011    0.927643    -7.320401    6.916699    -22.644335    51.640800    26.555506    18.000935    1.157942    -13.950180    12.312613    15.881322    -12.572171    11.011040    3.177979    -1.103608    -7.367988    -6.639996    2.712848    -1.215343    2.905185    -8.597352    20.007498    0.000000    0.000000    0.000000    -5.402411    -2.598190    -1.992105    5.129539    4.511983    -2.225434    3.706541    -5.587615    -5.845476    0.000000    0.000000    0.000000    
-164.928055    98.189491    27.830297    -4.746337    -0.310265    94.434547    -0.737914    -2.768828    0.019178    2.041726    6.526770    -0.078094    -0.782719    9.030056    13.303271    -2.624270    -3.569925    13.447291    6.861773    1.907220    -11.960505    -51.659023    20.051357    -3.411710    -1.719935    -14.543509    -14.441561    -15.890000    -14.903126    1.102644    -6.931956    7.154447    -22.505486    52.060734    27.234982    18.923513    1.457985    -13.515013    11.471636    18.832161    -11.784189    11.539858    3.183772    -1.121017    -7.412995    -6.667275    2.715600    -1.161736    3.162237    -8.712699    20.123463    0.000000    0.000000    0.000000    -5.416564    -2.611156    -1.969350    5.141524    4.386785    -2.051319    3.830171    -5.587173    -5.889954    0.000000    0.000000    0.000000    
-164.807938    98.175468    27.727461    -4.887509    -0.373439    94.235260    -0.769028    -2.921548    -0.019609    2.185824    6.668418    -0.133823    -1.091832    9.108259    13.504752    -2.601588    -4.164406    13.667385    6.267852    2.148000    -11.567993    -52.878006    20.931234    -4.103967    -1.639051    -14.376623    -13.916265    -17.786402    -14.631831    0.406203    -6.617279    7.369717    -22.235823    52.463734    28.113220    19.991343    1.585917    -13.082150    10.435714    21.475191    -10.970137    12.105048    3.187945    -1.163209    -7.429963    -6.687284    2.730160    -1.111015    3.152272    -8.848339    20.263042    0.000000    0.000000    0.000000    -5.422130    -2.637389    -1.817820    5.123987    4.231385    -2.391205    4.080030    -5.517640    -5.488654    0.000000    0.000000    0.000000    
-164.679733    98.167290    27.613853    -5.016140    -0.394584    94.006599    -0.773257    -3.037368    -0.020498    2.183832    6.796911    -0.144637    -1.266174    8.936643    13.681762    -2.513300    -4.366830    13.876179    5.757529    2.453085    -11.297628    -54.056396    21.582720    -4.800159    -1.614386    -14.481971    -13.314033    -19.617540    -14.623159    -0.246247    -6.315955    7.518402    -22.028173    52.790867    29.272224    21.122366    1.779494    -12.761462    9.338501    23.364601    -10.461516    12.013432    3.142587    -1.172367    -7.393449    -6.638677    2.800864    -1.212619    3.217880    -8.979158    20.396387    0.000000    0.000000    0.000000    -5.491015    -2.671640    -1.648818    5.167394    4.106321    -2.455733    4.228286    -5.453605    -5.398099    0.000000    0.000000    0.000000    
